<svg xmlns="http://www.w3.org/2000/svg" width="50" height="53" viewBox="0 0 50 53" fill="none">
  <g clip-path="url(#clip0_1_37)">
    <path d="M24.9906 0.000335693C23.7693 0.265042 13.0206 1.69435 11.6824 2.37347C11.3741 3.00052 10.7296 4.95688 10.5252 5.26643C9.66139 5.45519 6.16086 6.13142 5.94081 6.26089C5.81761 6.63697 5.01324 8.24256 4.82809 8.4306C4.08675 8.61865 0.630725 9.26938 0.199167 9.58327C-0.0472339 11.0876 -0.987973 26.1404 5.18416 35.9815C11.3563 45.8227 22.1513 52.3732 24.9906 53.0003H25.0128C27.8522 52.3732 38.6249 45.8227 44.797 35.9815C50.9684 26.1397 50.0521 11.0876 49.8043 9.58327C49.372 9.26938 45.9153 8.61865 45.1754 8.4306C44.9902 8.24256 44.1865 6.63697 44.0626 6.26089C43.8433 6.13142 40.3435 5.45447 39.4782 5.26643C39.2738 4.95688 38.6301 3.00052 38.321 2.37347C36.9871 1.69651 26.229 0.270104 24.9906 0.000335693ZM24.9906 3.84255C26.0488 4.07254 35.2447 5.32067 36.3849 5.89926C36.6476 6.43519 37.1903 8.09809 37.364 8.3628C38.1025 8.52336 41.1151 9.08839 41.3031 9.19905C41.4085 9.52017 42.079 10.9144 42.2378 11.075C42.8709 11.2355 45.8302 11.7792 46.1991 12.0468C46.4106 13.3327 47.2018 26.1916 41.9262 34.6029C36.6507 43.0149 27.4398 48.6229 25.0128 49.1581H24.9906C22.5636 48.6229 13.3528 43.0142 8.07723 34.6029C2.8024 26.1916 3.59359 13.3327 3.80438 12.0468C4.17398 11.7785 7.13258 11.2355 7.76567 11.075C7.92448 10.9144 8.59496 9.52017 8.70036 9.19905C8.88836 9.08839 11.8786 8.52336 12.6171 8.3628C12.7916 8.09809 13.3551 6.43519 13.6186 5.89926C14.7616 5.3185 23.9466 4.0682 24.9906 3.84255Z" fill="white"/>
    <path d="M26.6819 7.95569C26.3352 7.9904 26.2835 8.23685 26.2814 8.33991C26.2101 20.379 26.244 33.1509 26.1478 45.519C26.2262 45.9103 26.8406 45.3089 27.1938 45.1122C31.6902 42.6018 45.7148 28.8074 37.6534 23.867C43.8262 19.7676 42.7261 15.8555 39.9901 13.719C34.3328 9.29929 27.8783 8.20195 27.127 8.00089C26.9392 7.95063 26.7975 7.94412 26.6819 7.95569ZM30.4429 12.9054C30.5305 12.8569 34.1567 14.2222 36.1401 15.5949C38.4139 17.1687 37.6441 18.6812 36.3181 19.5953C35.5981 20.0936 31.1426 23.3435 30.3984 23.528C30.382 22.9009 30.3788 15.8301 30.4429 12.9054ZM33.7588 26.6695C34.2556 26.6851 34.7275 26.8464 35.0718 27.212C35.3795 27.5107 36.7356 28.9953 33.8479 33.2465C32.7725 35.1747 30.5177 37.593 30.2649 37.8346C30.2343 37.8432 30.2216 37.7953 30.1981 37.812C30.2216 36.4298 30.1851 29.7391 30.2649 27.8674C30.4246 27.7828 32.2685 26.6229 33.7588 26.6695Z" fill="white"/>
    <path d="M11.3533 12.2908C10.9837 12.4514 7.83528 14.4873 7.51838 14.8084C7.43078 17.6464 8.17995 25.3033 10.9395 31.2795C11.2885 32.0353 11.6673 32.744 12.0775 33.3855C12.8644 34.7655 12.9086 34.6563 13.8244 33.3349C14.4589 32.4634 15.374 31.171 15.6033 30.9048C15.9195 31.976 17.9641 38.6572 20.8397 42.6951C22.1144 44.4866 24.0721 46.1789 24.0643 45.4817C23.9859 38.6594 23.7937 9.12807 24.0044 7.9246C23.1563 7.90434 20.374 8.27248 19.8235 8.5625C19.7779 9.64229 20.2059 29.8916 19.9424 32.1944C17.9933 27.3718 17.3281 14.6457 17.7134 9.39495C16.6587 9.60902 14.0865 10.657 13.7176 11.0324C13.2433 11.9964 13.8906 22.5702 14.5643 26.1192C14.3343 26.4873 13.6713 27.4868 13.5659 27.6474C12.2313 25.2093 10.9559 17.6717 11.3533 12.2908Z" fill="white"/>
  </g>
  <defs>
    <clipPath id="clip0_1_37">
      <rect width="50" height="53" fill="white"/>
    </clipPath>
  </defs>
</svg>